# xmcd
#
# Track frame offsets: 
#        150
#        14565
#        27605
#        45357
#        64976
#        79648
#        94990
#        109147
#        121270
#        138434
#        156842
#        171843
#        186750
#        202833
#        221090
#        236738
#        253784
#
# Disc length: 3607 seconds
#
# Revision: 0
# Processed by: cddbd v1.5.2PL0 Copyright (c) Steve Scherf et al.
# Submitted via: ExactAudioCopy v1.0b1
#
DISCID=f10e1511
DTITLE=Luke Bryan - Crash My Party (Target Exclusive Deluxe Edition)
DYEAR=2013
DGENRE=Country
TTITLE0=That's My Kind Of Night
TTITLE1=Beer In The Headlights
TTITLE2=Crash My Party
TTITLE3=Roller Coaster
TTITLE4=We Run This Town
TTITLE5=Drink A Beer
TTITLE6=I See You
TTITLE7=Goodbye Girl
TTITLE8=Play It Again
TTITLE9=Blood Brothers
TTITLE10=Out Like That
TTITLE11=Shut It Down
TTITLE12=Dirt Road Diary
TTITLE13=What Is It With You
TTITLE14=Sunburnt Lips
TTITLE15=Better Than My Heart
TTITLE16=Your Mama Should've Named You Whiskey
EXTD=
EXTT0=
EXTT1=
EXTT2=
EXTT3=
EXTT4=
EXTT5=
EXTT6=
EXTT7=
EXTT8=
EXTT9=
EXTT10=
EXTT11=
EXTT12=
EXTT13=
EXTT14=
EXTT15=
EXTT16=
PLAYORDER=
